<svg width="24" height="24" viewBox="0 0 24 24" fill="none" xmlns="http://www.w3.org/2000/svg">
<path d="M19.5 5.25021C18.4783 5.25019 17.4657 5.44096 16.5141 5.81271C15.1716 3.02833 12.4594 1.64458 12.3356 1.5827C12.2314 1.53056 12.1165 1.50342 12 1.50342C11.8835 1.50342 11.7686 1.53056 11.6644 1.5827C11.5397 1.64458 8.82844 3.02833 7.48594 5.81271C6.53432 5.44096 5.52165 5.25019 4.5 5.25021C4.30109 5.25021 4.11032 5.32922 3.96967 5.46988C3.82902 5.61053 3.75 5.80129 3.75 6.00021V13.5002C3.75 15.6882 4.61919 17.7867 6.16637 19.3338C7.71354 20.881 9.81196 21.7502 12 21.7502C14.188 21.7502 16.2865 20.881 17.8336 19.3338C19.3808 17.7867 20.25 15.6882 20.25 13.5002V6.00021C20.25 5.80129 20.171 5.61053 20.0303 5.46988C19.8897 5.32922 19.6989 5.25021 19.5 5.25021ZM11.25 20.209C9.60065 20.0225 8.07757 19.2356 6.97105 17.9984C5.86452 16.7612 5.25192 15.1601 5.25 13.5002V12.0415C6.89935 12.2279 8.42243 13.0148 9.52895 14.252C10.6355 15.4892 11.2481 17.0903 11.25 18.7502V20.209ZM11.25 14.0121C10.5622 13.0318 9.66922 12.2129 8.63309 11.6124C7.59697 11.012 6.44254 10.6443 5.25 10.5349V6.79146C6.89935 6.97793 8.42243 7.76476 9.52895 9.00199C10.6355 10.2392 11.2481 11.8403 11.25 13.5002V14.0121ZM8.82656 6.47927C9.69094 4.67833 11.3025 3.54208 12 3.11364C12.6975 3.54302 14.3091 4.67927 15.1725 6.47927C13.786 7.33733 12.6827 8.58445 12 10.0652C11.3173 8.5842 10.2136 7.33701 8.82656 6.47927ZM18.75 13.5002C18.7481 15.1601 18.1355 16.7612 17.029 17.9984C15.9224 19.2356 14.3994 20.0225 12.75 20.209V18.7502C12.7519 17.0903 13.3645 15.4892 14.471 14.252C15.5776 13.0148 17.1006 12.2279 18.75 12.0415V13.5002ZM18.75 10.5349C17.5575 10.6443 16.403 11.012 15.3669 11.6124C14.3308 12.2129 13.4378 13.0318 12.75 14.0121V13.5002C12.7519 11.8403 13.3645 10.2392 14.471 9.00199C15.5776 7.76476 17.1006 6.97793 18.75 6.79146V10.5349Z" fill="#A6A3B2"/>
</svg>
